<?xml version="1.0" encoding="UTF-8"?>
<svg id="freshdrops-logo-beta-hi_Image" data-name="freshdrops-logo-beta-hi Image" xmlns="http://www.w3.org/2000/svg" fill="#fff" viewBox="0 0 423.87 160.82">
  <defs>
    <style>
      .cls-1 {
        isolation: isolate;
        opacity: .99;
      }
    </style>
  </defs>
  <path class="cls-1" d="m0,74.98c.24-1.93.46-3.86.73-5.79.22-1.62.49-3.23.77-4.84.1-.61.29-1.25,1.11-1.1.79.15.78.76.66,1.4-1.24,6.45-1.94,12.95-1.33,19.5.36,3.87,1.13,7.71,1.72,11.56.04.27.24.58.17.8-.13.4-.41.75-.63,1.12-.35-.25-.92-.45-1-.77-.47-1.77-.9-3.55-1.2-5.36-.42-2.36-.68-4.77-1-7.17v-9.35Z"/>
  <path class="cls-1" d="m38.42,160.82c-.14-.45-.39-.89-.39-1.34-.02-9.98-.02-19.96,0-29.94,0-.15.04-.31.07-.54h1.7v1.26c0,9.58,0,19.16-.02,28.74,0,.61-.25,1.21-.39,1.82h-.96Z"/>
  <path class="cls-1" d="m362.88,94.59v15.51c0,1.79-.27,2.04-1.98,2.05-1.99,0-2.34-.29-2.34-2.1,0-14.97-.01-29.95.03-44.92,0-.67.34-1.78.77-1.92.88-.28,1.95-.13,2.9.03.26.04.54.75.58,1.17.09.93.03,1.88.03,3.09.81-.8,1.38-1.45,2.03-2,8.2-6.93,20.75-3.09,23.49,7.25,1.49,5.61,1.45,11.29-.13,16.89-1.78,6.35-6.76,9.94-13.35,10.07-4.65.1-8.53-1.35-11.6-4.87-.07-.08-.18-.11-.43-.26h0Zm22.31-12.8c-.23-2.47-.29-4.15-.55-5.8-.42-2.64-1.33-5.08-3.35-6.98-5.8-5.44-15.55-2.44-17.74,5.5-.94,3.43-.85,6.93-.55,10.45.52,5.91,4.52,10.11,9.87,10.55,5.05.42,9.4-1.53,11.02-6.76.77-2.48.97-5.13,1.29-6.96h0Z"/>
  <path class="cls-1" d="m281.12,67.54v-15.5c0-1.76.27-2,2.03-2,1.93,0,2.29.3,2.29,2.02,0,14.98.01,29.95-.03,44.93,0,.62-.41,1.69-.8,1.77-.95.21-2.02.04-3.01-.13-.22-.04-.42-.73-.45-1.13-.07-.91-.02-1.82-.02-2.98-.71.7-1.25,1.25-1.81,1.78-5.68,5.4-19.34,5.34-23.16-5.69-2.23-6.45-2.26-13.02.08-19.44,2.11-5.79,6.86-8.79,13.01-8.91,4.54-.09,8.27,1.41,11.26,4.79.12.13.27.24.6.51v-.02Zm-22.22,13.38c.14,1.71.19,3.43.45,5.12.42,2.77,1.42,5.33,3.64,7.2,5.98,5.07,15.33,1.95,17.47-5.84.95-3.47.84-7.02.53-10.57-.49-5.63-4.07-9.58-9.66-10.33-5.11-.68-9.23,1.6-11.12,6.31-1.05,2.61-1.2,5.34-1.29,8.11h-.02Z"/>
  <path class="cls-1" d="m146.56,82.67c-1.08,7.17,5.31,13.69,12.32,12.77,3.37-.44,6.14-1.87,8.17-4.65.7-.96,2.8-1.39,3.77-.71.36.25.73,1,.61,1.35-.37,1.03-.82,2.11-1.52,2.92-2.86,3.3-6.64,4.91-10.92,5.3-3.97.36-7.73-.35-10.94-2.94-3.05-2.47-4.72-5.78-5.48-9.56-1.07-5.34-1.01-10.64,1.04-15.76,2.85-7.11,9.1-9.95,16.44-8.96,6.75.92,10.93,5.94,12.06,12.6.29,1.72.4,3.49.46,5.24.08,1.99-.37,2.4-2.33,2.4h-23.7.02Zm21.76-3.91c-.24-4.76-1.51-8.88-5.93-11.13-3.86-1.97-7.85-1.84-11.44.73-3.5,2.51-4.58,6.21-4.53,10.41h21.9Z"/>
  <path class="cls-1" d="m220.32,67.47c.22-.28.42-.57.66-.83,2.12-2.3,4.64-3.84,7.82-4.25,9.65-1.25,16.26,3.91,16.79,13.32.4,7.05.19,14.14.2,21.21,0,.63-.36,1.71-.74,1.81-.95.24-2.05.17-3-.1-.33-.1-.53-1.17-.54-1.79-.04-5.87.02-11.75-.05-17.62-.02-1.82-.15-3.69-.57-5.45-1.38-5.73-5.92-7.77-11.15-7.33-6.34.53-9.44,5.23-9.56,10.21-.13,5.27-.11,10.54-.14,15.82v3.96c0,2.45-.22,2.61-2.7,2.55-1.08-.03-1.51-.56-1.61-1.52-.04-.36-.02-.72-.02-1.08v-43.75c0-.52-.08-1.11.15-1.52.24-.44.8-.72,1.23-1.05.08-.06.23,0,.35,0,2.46-.04,2.59.08,2.59,2.52v14.72c.1.06.2.13.3.19v-.02Z"/>
  <path class="cls-1" d="m318.07,81.02c0-3.42.23-6.78,1.54-9.99,2.2-5.36,7.18-8.81,12.99-8.72,2.25.03,4.59.2,6.71.85,4.56,1.41,7.48,4.71,8.72,9.26,1.58,5.8,1.62,11.69-.13,17.46-1.83,6.06-7.08,9.73-13.42,9.8-2.67.03-5.27-.17-7.72-1.29-5.14-2.36-7.56-6.65-8.34-12.01-.26-1.77-.25-3.58-.36-5.37h.01Zm4.08-.13c.08.02.16.04.23.06.1,1.47.18,2.94.32,4.41.6,6.3,4.7,9.63,9.5,10.12,5.45.56,10.49-2.13,11.89-7.84.84-3.41.76-6.86.51-10.34-.4-5.58-3.44-10.31-9.96-10.87-4.77-.41-9.58,1.7-11.17,6.87-.75,2.44-.91,5.06-1.33,7.59h0Z"/>
  <path class="cls-1" d="m410.45,99.69c-5,.08-9.04-1.24-12.22-4.6-.8-.84-1.3-1.98-1.84-3.04-.41-.79.01-1.38.75-1.75,1.05-.53,2.62-.31,3.23.68,3.26,5.27,11.25,5.44,15.81,3.37,2.6-1.18,3.67-3.16,3.31-5.99-.2-1.63-1.26-2.74-2.67-3.28-2.44-.93-4.97-1.65-7.47-2.43-2.16-.68-4.39-1.18-6.49-2.01-7.62-3.01-6.58-12.31-1.66-15.88,5.05-3.66,14.63-3.43,19.15,1.44.89.96,1.5,2.23,2.06,3.44.41.89-.12,1.52-1.03,1.79-1.27.38-2.46.1-3.08-.93-2.25-3.75-5.82-4.26-9.69-4.05-.98.05-1.98.26-2.92.57-2.9.94-4.34,3.26-3.97,6.27.19,1.55,1.14,2.6,2.49,3.13,2.33.91,4.72,1.64,7.1,2.41,2.34.76,4.76,1.32,7.04,2.25,3.07,1.25,5.12,3.48,5.46,6.96.39,3.98-1.07,7.11-4.43,9.29-2.84,1.85-6.02,2.47-8.93,2.37h0Z"/>
  <path class="cls-1" d="m193.28,99.68c-4.82.09-8.87-1.2-12.07-4.55-.8-.84-1.31-1.97-1.86-3.02-.44-.84-.03-1.46.77-1.84,1.09-.52,2.59-.28,3.22.74,3.32,5.35,11.68,5.4,16.03,3.2,2.48-1.25,3.53-3.32,3.05-6.02-.25-1.41-1.13-2.47-2.38-2.96-2.51-.97-5.1-1.75-7.67-2.58-2.31-.74-4.69-1.28-6.92-2.21-7.04-2.92-6.23-11.91-1.62-15.41,3.5-2.65,7.44-3.13,11.59-2.64,3.09.37,5.89,1.57,8,3.91.85.94,1.45,2.17,1.92,3.37.16.4-.3,1.33-.74,1.61-1.09.69-2.7.27-3.37-.84-2.27-3.74-5.85-4.23-9.71-4-.98.06-1.98.27-2.92.58-2.88.95-4.33,3.32-3.92,6.3.17,1.28.87,2.34,2.01,2.8,2.5,1,5.07,1.84,7.62,2.7,2.34.78,4.76,1.35,7.03,2.27,3.03,1.24,5.06,3.45,5.41,6.86.41,3.97-1.01,7.12-4.36,9.33-2.83,1.86-6.01,2.49-9.09,2.4h-.02Z"/>
  <path class="cls-1" d="m103.15,62.99h8.92c1.52,0,1.91.43,1.91,2.05s-.39,2.03-1.94,2.03c-2.87.01-5.74,0-8.77,0v29.64c0,2.01-1.8,3.11-3.54,2.06-.43-.26-.72-1.05-.74-1.61-.08-2.51-.03-5.03-.03-7.55v-22.54h-5.68c-.72,0-1.63.09-1.77-.81-.14-.9-.05-1.87.16-2.76.06-.26.86-.48,1.33-.49,1.95-.05,3.9-.02,5.85-.02.11-2.26.17-4.41.33-6.55.4-5.25,3.94-8.52,9.22-8.56,1.52,0,3.04,0,4.56,0,1.33,0,1.7.46,1.71,2,.01,1.55-.36,2.04-1.64,2.08-1.6.05-3.21-.04-4.79.16-2.96.38-4.19,1.49-4.66,4.41-.33,2.07-.3,4.19-.44,6.45h0Z"/>
  <path class="cls-1" d="m39.81,59.87c0,19.22,0,38.44-.03,57.66,0,.8.5,2.2-.88,2.21-1.38,0-.89-1.39-.89-2.19-.03-17.78-.03-35.56-.02-53.34,0-20.74.02-41.47.03-62.21,0-.44-.07-.92.08-1.3.11-.32.51-.7.79-.7s.69.37.81.67c.15.39.08.86.08,1.3v57.9h.03Z"/>
  <path class="cls-1" d="m124.86,67.49c2.41-3.59,5.67-4.58,9.42-4.5.88.02,1.76,0,2.64,0s1.34.42,1.39,1.29c.02.36.03.72.02,1.08-.04,1.35-.38,1.68-1.71,1.72-1.4.04-2.8.06-4.19.15-4.09.29-7.53,3.23-7.56,8.71-.05,6.95-.01,13.9-.01,20.84,0,1.95-1.84,3.05-3.54,1.99-.44-.28-.73-1.13-.74-1.73-.07-3.75-.03-7.51-.03-11.26,0-6.87-.02-13.74.03-20.6,0-.67.32-1.75.76-1.92.81-.31,1.86-.2,2.75,0,.33.07.66.85.73,1.34.12.82.03,1.67.03,2.89h.01Z"/>
  <path class="cls-1" d="m300.87,67.5c2.33-3.47,5.45-4.54,9.08-4.51h3c.87,0,1.33.44,1.37,1.31.02.44.01.88.01,1.32,0,.98-.5,1.44-1.49,1.46-1.48.03-2.97-.02-4.42.17-4.85.66-7.53,3.78-7.55,8.71-.02,6.95,0,13.9,0,20.84,0,1.93-1.9,3.03-3.56,1.96-.44-.29-.71-1.14-.72-1.74-.06-4.95-.03-9.9-.03-14.85,0-5.67-.03-11.34.03-17.01,0-.67.33-1.75.78-1.91.82-.3,1.86-.19,2.75,0,.33.07.64.86.71,1.35.12.81.03,1.66.03,2.88h.01Z"/>
  <path class="cls-1" d="m37.26,8.51c-.88,12.43-1.78,24.86-2.62,37.3-.91,13.52-1.45,27.05-1.06,40.6.24,8.22.78,16.43,1.26,24.64.13,2.19.54,4.35.83,6.53.04.32.18.67.08.94-.14.39-.46.71-.7,1.06-.33-.28-.87-.5-.94-.83-.3-1.36-.53-2.75-.64-4.14-.54-6.77-1.23-13.53-1.48-20.3-.3-7.82-.43-15.66-.21-23.49.28-10.06.94-20.11,1.54-30.15.6-10.13,1.33-20.25,2-30.37.06-.88.03-1.77.22-2.62.09-.42.58-.76.89-1.13.26.42.56.82.77,1.26.09.19.02.47.02.71h.05-.01Z"/>
  <path class="cls-1" d="m46.3,77.91c-.28,7.75-.5,16.97-1,26.18-.26,4.77-1.01,9.52-1.54,14.28-.07.62-.16,1.29-1,1.2-.94-.11-.8-.85-.71-1.49,2.06-14.08,2.4-28.25,2.21-42.43-.11-8.55-.42-17.09-.87-25.63-.44-8.37-1.18-16.73-1.75-25.1-.39-5.66-.71-11.32-1.06-16.98-.04-.62-.08-1.3.75-1.38.92-.08.93.65.97,1.31.54,8.45,1.08,16.9,1.64,25.35.47,7.09,1.06,14.18,1.44,21.28.39,7.3.57,14.61.9,23.4h.02Z"/>
  <path class="cls-1" d="m25.3,79.49c.08-12.92,1.21-25.74,3.18-38.51,1.35-8.75,2.44-17.55,3.64-26.32.09-.66.15-1.39,1.05-1.26.91.13.74.92.66,1.53-1.14,8.38-2.26,16.77-3.46,25.14-1.24,8.61-2.34,17.23-2.82,25.93-.45,8.14-.61,16.28-.16,24.42.5,9.05,1.49,18.04,4.06,26.79.01.04.01.08.03.12.22.63.45,1.32-.42,1.59-.87.28-1.09-.42-1.26-1.06-.5-1.89-1.05-3.77-1.45-5.68-2.16-10.33-3.09-20.44-3.06-32.71v.02Z"/>
  <path class="cls-1" d="m52.45,81.16c-.02,9.19-.64,20.18-3.01,31-.43,1.95-.98,3.87-1.49,5.79-.16.6-.45,1.28-1.2.92-.3-.15-.56-.93-.45-1.32,3.37-12.02,4.29-24.33,4.37-36.74.08-13.2-1.07-26.31-3.05-39.36-1.33-8.76-2.44-17.55-3.65-26.33-.03-.24-.13-.52-.04-.71.19-.37.48-.69.73-1.04.32.29.85.54.91.87.3,1.65.47,3.32.7,4.98,1.23,8.85,2.44,17.71,3.71,26.56,1.61,11.12,2.42,22.3,2.45,35.38h.02Z"/>
  <path class="cls-1" d="m18.97,79.47c.07-12.9,1.75-25.61,4.65-38.17,1.44-6.22,2.67-12.48,3.99-18.72.04-.2.02-.45.13-.57.31-.34.68-.62,1.03-.92.22.44.67.92.61,1.32-.4,2.36-.92,4.7-1.41,7.04-1.66,8-3.45,15.98-4.94,24.02-1.8,9.64-2.36,19.4-2.19,29.2.17,9.61,1.23,19.09,4.12,28.3.56,1.78,1.32,3.51,1.88,5.29.13.4-.02,1.19-.31,1.37-.67.43-1.06-.15-1.31-.75-2.36-5.62-3.81-11.49-4.79-17.49-1.07-6.59-1.49-13.23-1.48-19.91h.02Z"/>
  <path class="cls-1" d="m58.83,80.28c-.09,10.1-1.01,20.81-4.32,31.2-.58,1.82-1.25,3.62-2,5.38-.16.38-.79.55-1.21.82-.13-.47-.5-1.03-.35-1.39,5.1-12.7,6.22-26,6.03-39.5-.18-13-2.26-25.74-5.22-38.37-1.23-5.24-2.22-10.54-3.34-15.81-.15-.7-.2-1.41.64-1.46.34-.02.95.68,1.04,1.13,2.26,10.78,4.6,21.54,6.63,32.36,1.54,8.22,2.03,16.56,2.09,25.64h0Z"/>
  <path class="cls-1" d="m12.68,79.77c-.04-13.16,2.24-25.95,6.15-38.48,1-3.2,1.87-6.43,2.8-9.65.18-.62.35-1.37,1.22-1.12.86.25.63.94.45,1.59-1.88,6.68-3.91,13.31-5.57,20.04-2.82,11.42-3.87,23.05-3.06,34.8.64,9.33,2.47,18.4,6.67,26.87.28.57.5,1.19-.22,1.55-.82.41-1.13-.26-1.42-.85-2.89-5.88-4.81-12.09-5.72-18.55-.76-5.36-1.12-10.77-1.66-16.16.12-.01.24-.02.35-.04h0Z"/>
  <path class="cls-1" d="m65.26,78.32c0,10.63-1.25,21.04-4.99,31.05-.67,1.79-1.46,3.54-2.3,5.26-.18.37-.9.81-1.22.71-.77-.22-.59-.88-.3-1.47,5.93-12.31,7.26-25.41,6.82-38.85-.44-13.17-3.54-25.8-7.45-38.29-.5-1.6-.97-3.21-1.34-4.84-.09-.41.28-.92.44-1.38.39.29,1.04.51,1.15.89,3.28,11.33,7.03,22.56,8.22,34.39.42,4.17.66,8.35.98,12.53h-.01Z"/>
  <path class="cls-1" d="m13.54,43.55c1.14.3,1.18.83.92,1.62-.98,2.95-2,5.89-2.82,8.89-2.72,9.84-3.95,19.88-3.45,30.09.43,8.64,2.16,17,5.91,24.87.2.42.32,1.05.14,1.44-.33.73-1.27.47-1.65-.55-1.43-3.88-3.07-7.72-4.11-11.71-2.27-8.65-2.58-17.49-1.8-26.39.81-9.24,2.83-18.19,6.04-26.88.19-.51.56-.94.82-1.36v-.02Z"/>
  <path class="cls-1" d="m71.48,80.3c-.06,9.73-1.65,19.83-6.16,29.33-.14.29-.23.67-.46.82-.29.19-.75.31-1.05.2-.22-.08-.33-.55-.4-.87-.04-.16.11-.37.19-.55,4.87-10.23,6.41-21.08,6.06-32.28-.33-10.75-2.49-21.14-6.12-31.24-.07-.19-.21-.39-.19-.56.08-.48.07-1.2.37-1.38.72-.42,1.06.24,1.26.83.7,2.04,1.42,4.07,2.04,6.13,2.87,9.42,4.37,19.05,4.45,29.58h.01Z"/>
  <path class="cls-1" d="m77.79,78.39c.12,5.98-.48,11.87-1.93,17.68-.04.15-.09.31-.13.46-.14.62-.34,1.25-1.14,1.06-.89-.21-.68-.92-.53-1.56.29-1.24.6-2.48.84-3.73,1.77-9.18,1.41-18.34-.31-27.49-.13-.67-.29-1.36.58-1.54.91-.19,1.04.58,1.12,1.21.61,4.62,1.18,9.25,1.77,13.87-.1.01-.19.02-.29.04h.02Z"/>
  <path class="cls-1" d="m43.85,128.8c-.52,8.12-1.03,16.16-1.53,24.19-.04.65-.14,1.27-.96,1.2-.83-.08-.8-.75-.76-1.37.35-5.69.71-11.38,1.07-17.08.12-1.87.26-3.74.37-5.61.09-1.5.12-1.53,1.81-1.34h0Z"/>
  <path class="cls-1" d="m33.96,128.73c.61.07,1.08.12,1.67.18.1,1.26.21,2.47.29,3.69.43,6.69.85,13.39,1.27,20.08,0,.16.08.36,0,.47-.26.37-.57.71-.86,1.06-.28-.32-.77-.63-.81-.97-.21-2.19-.31-4.38-.45-6.57-.37-5.7-.75-11.39-1.12-17.09-.02-.23,0-.46,0-.85h.01Z"/>
  <path class="cls-1" d="m48.1,127.99c-.28,2.02-.54,3.89-.79,5.78-.55,4.14-1.1,8.29-1.64,12.44-.08.64-.2,1.26-1.02,1.16-.83-.1-.77-.79-.69-1.4.74-5.61,1.51-11.21,2.22-16.82.16-1.24,1.06-.88,1.92-1.16h0Z"/>
  <path class="cls-1" d="m29.82,128.24c.58.09,1.08.17,1.68.27.38,2.7.77,5.38,1.13,8.06.4,2.97.78,5.94,1.16,8.9.04.28.15.6.05.83-.16.39-.45.72-.69,1.08-.33-.31-.9-.59-.96-.94-.44-2.84-.78-5.69-1.17-8.54-.4-2.93-.81-5.85-1.2-8.78-.04-.26,0-.54,0-.88Z"/>
  <path class="cls-1" d="m52.52,126.82c-.62,3.01-1.17,5.69-1.73,8.37-.24,1.17-.4,2.36-.75,3.5-.12.4-.71.65-1.08.97-.19-.46-.61-.95-.53-1.36.63-3.37,1.38-6.71,2.01-10.07.22-1.15,1.14-.88,2.08-1.4h0Z"/>
  <path class="cls-1" d="m25.4,127.45c1.24-.03,1.91.28,2.13,1.57.54,3.14,1.29,6.25,1.87,9.39.07.37-.36.83-.55,1.26-.35-.24-.95-.42-1.02-.73-.85-3.8-1.62-7.62-2.43-11.48h0Z"/>
  <path class="cls-1" d="m57.2,125.49c-.4,1.41-.71,2.72-1.18,3.97-.13.35-.71.53-1.09.79-.18-.42-.47-.83-.5-1.26-.02-.45.28-.91.34-1.38.17-1.35.96-1.99,2.43-2.12Z"/>
  <path class="cls-1" d="m20.75,125.98c1.75.38,2.94,1.98,2.71,3.49-.05.3-.45.73-.74.76-.28.03-.78-.3-.88-.58-.41-1.14-.71-2.33-1.1-3.67h.01Z"/>
</svg>